<?xml version="1.0" standalone="no"?>
<!DOCTYPE svg PUBLIC "-//W3C//DTD SVG 20010904//EN"
 "http://www.w3.org/TR/2001/REC-SVG-20010904/DTD/svg10.dtd">
<svg version="1.0" xmlns="http://www.w3.org/2000/svg"
 width="225.000000pt" height="225.000000pt" viewBox="0 0 225.000000 225.000000"
 preserveAspectRatio="xMidYMid meet">

<g transform="translate(0.000000,225.000000) scale(0.100000,-0.100000)"
fill="#000000" stroke="none">
<path d="M407 2243 c-10 -10 -8 -68 3 -98 6 -15 23 -39 38 -55 24 -23 31 -26
45 -15 17 12 14 45 -4 45 -13 0 -11 -18 3 -22 7 -3 5 -7 -6 -11 -9 -4 -15 -3
-12 2 3 5 -3 11 -14 14 -26 7 -53 71 -48 114 4 36 4 36 -5 26z"/>
<path d="M2080 2240 c0 -5 3 -9 8 -8 10 2 72 -35 72 -44 0 -15 -27 -8 -54 13
-14 11 -26 16 -26 11 0 -5 16 -17 35 -28 29 -15 35 -24 32 -44 -2 -14 -2 -19
0 -12 3 8 11 11 19 8 8 -3 14 0 14 6 0 7 13 9 35 5 19 -3 35 -2 35 4 0 5 -13
9 -29 9 -16 0 -36 3 -45 6 -29 11 -7 22 37 18 l42 -4 -39 10 c-50 13 -106 40
-106 51 0 5 -7 9 -15 9 -8 0 -15 -4 -15 -10z"/>
<path d="M2209 2234 c19 -8 36 -12 39 -9 5 5 -43 25 -61 25 -7 -1 3 -7 22 -16z"/>
<path d="M445 2223 c14 -11 16 -17 8 -20 -19 -7 -16 -23 5 -23 15 -1 15 -2 -2
-15 -19 -15 -19 -15 1 -15 12 0 24 -6 27 -12 3 -7 3 -2 -1 12 -4 14 -7 39 -6
55 1 26 -3 30 -25 32 -26 1 -26 1 -7 -14z"/>
<path d="M1734 2229 c-4 -8 -3 -9 4 -5 7 4 12 3 12 -3 0 -5 -6 -12 -12 -14 -8
-3 -6 -6 5 -6 9 -1 17 5 17 13 0 20 -17 29 -26 15z"/>
<path d="M1775 2230 c-9 -15 5 -32 21 -26 9 3 14 -1 15 -12 0 -12 2 -13 6 -3
5 11 7 11 14 0 7 -11 9 -10 9 4 0 9 -6 17 -14 17 -8 0 -16 7 -20 15 -6 17 -22
20 -31 5z m25 -10 c0 -5 -4 -10 -10 -10 -5 0 -10 5 -10 10 0 6 5 10 10 10 6 0
10 -4 10 -10z"/>
<path d="M117 2224 c-16 -16 -6 -63 15 -78 30 -21 50 -20 82 5 27 21 34 53 14
65 -16 10 -103 16 -111 8z m43 -19 c0 -20 10 -19 25 2 14 18 35 10 35 -14 0
-23 -29 -53 -51 -53 -23 0 -52 42 -43 64 8 20 34 21 34 1z"/>
<path d="M684 2189 c-10 -17 13 -36 27 -22 12 12 4 33 -11 33 -5 0 -12 -5 -16
-11z m26 -9 c0 -5 -4 -10 -10 -10 -5 0 -10 5 -10 10 0 6 5 10 10 10 6 0 10 -4
10 -10z"/>
<path d="M738 2193 c6 -2 12 -9 12 -14 0 -6 -4 -7 -10 -4 -5 3 -10 1 -10 -5 0
-18 25 -6 28 13 2 11 -3 17 -15 16 -10 0 -13 -3 -5 -6z"/>
<path d="M1704 2189 c-12 -20 12 -31 27 -12 13 17 13 17 -5 3 -18 -14 -19 -13
-13 3 7 19 2 23 -9 6z"/>
<path d="M995 2178 c-16 -6 -45 -22 -64 -36 -32 -24 -33 -27 -28 -73 9 -76 22
-92 67 -86 43 6 145 49 172 74 10 9 18 24 18 33 0 26 -58 100 -78 99 -10 0
-12 -3 -4 -6 21 -8 13 -23 -13 -23 -34 0 -94 -26 -122 -52 -24 -23 -37 -21
-28 4 7 18 57 48 109 64 23 7 32 13 21 13 -11 -1 -33 -5 -50 -11z m155 -88 c0
-30 -137 -100 -195 -100 -19 0 -26 7 -34 38 -14 48 -14 52 4 52 8 0 15 4 15
10 0 15 99 62 123 58 21 -3 21 -4 -6 -22 -15 -10 -44 -24 -65 -32 -20 -7 -29
-13 -19 -14 23 0 109 44 127 65 12 14 15 13 31 -12 11 -15 19 -35 19 -43z"/>
<path d="M980 2052 c0 -5 7 -9 15 -9 8 0 12 4 9 9 -3 4 -9 8 -15 8 -5 0 -9 -4
-9 -8z"/>
<path d="M1550 2166 c0 -7 -7 -19 -15 -26 -8 -7 -15 -20 -14 -29 0 -11 3 -10
11 7 11 22 42 30 52 13 10 -15 -6 -43 -20 -37 -8 3 -14 1 -14 -4 0 -5 8 -11
18 -13 14 -4 14 -6 -5 -12 -13 -4 -20 -11 -18 -16 3 -4 12 -6 20 -2 20 7 19
-7 -2 -24 -17 -13 -16 -14 3 -8 26 7 40 -28 19 -45 -20 -17 -53 25 -61 77 -3
24 -9 42 -11 39 -14 -14 12 -91 42 -123 28 -30 36 -33 53 -24 l20 11 -20 42
c-12 24 -20 54 -19 68 8 101 7 113 -16 116 -15 3 -23 -1 -23 -10z m40 -2 c0
-8 -19 -13 -24 -6 -3 5 1 9 9 9 8 0 15 -2 15 -3z m15 -214 c-3 -5 -11 -10 -16
-10 -6 0 -7 5 -4 10 3 6 11 10 16 10 6 0 7 -4 4 -10z"/>
<path d="M1748 2169 c-11 -6 -18 -22 -18 -39 0 -32 13 -45 33 -33 6 4 23 8 37
8 32 0 38 27 11 54 -23 23 -37 25 -63 10z m54 -16 c29 -26 23 -46 -12 -38 -20
4 -30 3 -30 -5 0 -6 -4 -8 -10 -5 -22 14 -3 65 24 65 5 0 18 -7 28 -17z"/>
<path d="M767 2164 c-4 -4 -7 -12 -7 -18 0 -6 5 -4 10 4 9 13 11 13 21 0 9
-12 10 -12 7 -1 -5 17 -21 25 -31 15z"/>
<path d="M654 2149 c-10 -17 13 -36 27 -22 12 12 4 33 -11 33 -5 0 -12 -5 -16
-11z m26 -9 c0 -5 -4 -10 -10 -10 -5 0 -10 5 -10 10 0 6 5 10 10 10 6 0 10 -4
10 -10z"/>
<path d="M697 2122 c-10 -10 -17 -26 -17 -34 0 -21 26 -42 34 -29 4 6 20 8 36
4 27 -5 30 -3 30 20 0 15 -9 32 -22 41 -29 21 -41 20 -61 -2z m54 -2 c10 -6
19 -18 19 -28 0 -13 -9 -18 -40 -18 -32 -1 -40 2 -40 17 0 10 8 23 18 28 21
13 20 13 43 1z"/>
<path d="M1270 2106 c-17 -22 -8 -57 21 -78 25 -19 28 -19 57 -4 17 9 34 25
37 36 9 28 -13 53 -42 47 -13 -2 -26 0 -29 4 -8 14 -30 11 -44 -5z m40 -11 c0
-18 12 -19 27 -4 6 6 16 8 22 5 36 -23 -19 -87 -57 -67 -24 13 -34 38 -27 62
7 23 35 25 35 4z"/>
<path d="M2010 2070 c-14 -26 -86 -62 -130 -66 -19 -2 -38 -3 -42 -3 -24 -2
13 -91 37 -91 8 0 22 11 30 24 18 28 109 70 136 63 10 -3 26 1 36 8 14 11 16
16 6 26 -7 7 -13 21 -13 30 0 15 -19 29 -40 29 -5 0 -14 -9 -20 -20z m43 -19
c-2 -11 1 -20 6 -18 5 1 10 -2 11 -8 1 -5 -16 -13 -38 -17 -49 -8 -110 -39
-136 -67 -24 -26 -36 -27 -36 -1 0 11 -5 20 -11 20 -6 0 -9 8 -7 18 2 12 11
16 30 14 31 -4 127 42 146 70 17 24 38 18 35 -11z"/>
<path d="M103 2034 l-28 -24 24 -46 c21 -38 22 -47 10 -55 -11 -7 -10 -9 6
-10 11 -1 24 -1 28 0 5 1 21 -8 37 -19 15 -11 37 -20 47 -20 24 0 53 30 53 54
0 45 -65 120 -118 135 -26 8 -35 5 -59 -15z m99 -18 c27 -19 68 -77 68 -97 0
-15 -14 -17 -52 -10 -16 3 -70 56 -84 82 -24 48 10 37 67 -22 27 -28 49 -46
49 -40 0 16 -82 91 -107 97 -12 4 -20 10 -18 15 6 9 46 -4 77 -25z m-76 -36
c10 -22 25 -40 32 -40 6 0 12 -4 12 -8 0 -5 16 -17 35 -28 34 -18 46 -34 24
-34 -12 0 -65 36 -91 62 -16 16 -48 71 -48 83 0 18 20 -1 36 -35z"/>
<path d="M477 1972 c-17 -18 -47 -84 -47 -101 0 -20 127 -73 189 -78 55 -5 61
-4 61 13 0 15 -2 16 -9 5 -17 -27 -202 20 -225 57 -8 14 19 82 33 82 5 0 13
-5 17 -11 10 -17 86 -49 114 -48 16 0 10 5 -20 13 -25 6 -57 19 -70 29 l-24
17 29 -1 c45 0 120 -33 119 -50 -1 -11 6 -14 22 -11 14 2 24 11 24 22 0 58
-171 108 -213 62z m153 -16 c25 -12 46 -30 48 -39 3 -13 -5 -12 -41 9 -25 13
-68 27 -96 31 -28 3 -51 10 -51 14 0 18 95 8 140 -15z"/>
<path d="M1263 1882 c-7 -4 -15 -22 -19 -39 -5 -25 -1 -34 22 -52 15 -12 38
-24 50 -27 l24 -6 -22 -17 c-15 -13 -18 -20 -9 -25 6 -4 10 -3 9 2 -2 6 2 9 7
8 6 0 9 -5 7 -9 -1 -5 2 -6 7 -2 6 3 7 13 4 22 -5 14 -1 15 30 10 39 -6 77 1
77 14 0 5 -11 4 -24 -1 -24 -9 -112 7 -101 19 4 3 35 4 71 2 62 -3 64 -2 64
22 0 28 -22 51 -73 72 -39 16 -104 20 -124 7z m155 -34 c42 -26 39 -52 -7 -56
-39 -4 -113 21 -133 45 -12 15 -8 16 35 10 26 -4 66 -16 90 -27 41 -21 42 -21
19 -1 -27 24 -82 41 -132 41 -27 0 -32 3 -20 11 22 14 109 1 148 -23z m-108
-62 c-10 -10 -59 24 -60 41 0 7 13 3 34 -10 19 -12 30 -26 26 -31z"/>
<path d="M108 1873 c7 -3 16 -2 19 1 4 3 -2 6 -13 5 -11 0 -14 -3 -6 -6z"/>
<path d="M543 1865 c0 -8 4 -12 9 -9 5 3 6 10 3 15 -9 13 -12 11 -12 -6z"/>
<path d="M682 1855 c0 -16 2 -22 5 -12 2 9 2 23 0 30 -3 6 -5 -1 -5 -18z"/>
<path d="M1004 1849 c-3 -6 -1 -16 5 -22 9 -9 14 -8 21 3 9 15 4 30 -10 30 -5
0 -12 -5 -16 -11z m26 -3 c0 -3 -4 -8 -10 -11 -5 -3 -10 -1 -10 4 0 6 5 11 10
11 6 0 10 -2 10 -4z"/>
<path d="M1062 1844 c-11 -12 -10 -14 3 -14 8 0 15 -7 15 -15 0 -10 -10 -15
-28 -15 -34 0 -52 -16 -52 -47 0 -27 24 -40 43 -24 10 8 17 7 25 -1 9 -9 15
-9 24 0 9 9 10 19 1 42 -10 26 -9 30 5 30 12 0 13 3 5 8 -7 4 -16 17 -20 29
-7 18 -10 19 -21 7z m16 -66 c13 -13 16 -48 4 -48 -4 0 -13 5 -20 12 -8 8 -15
8 -27 -2 -20 -17 -29 -7 -21 25 7 27 42 35 64 13z"/>
<path d="M1673 1821 c-55 -26 -83 -55 -83 -88 0 -20 3 -24 9 -14 5 8 16 11 25
8 26 -10 112 21 146 53 18 17 34 30 36 30 2 0 13 -18 24 -39 l20 -40 -28 -19
c-47 -34 -109 -61 -151 -68 -39 -6 -41 -5 -56 27 -16 39 -20 25 -5 -17 10 -25
13 -26 56 -20 57 7 119 35 161 70 32 27 33 28 17 59 -40 80 -87 96 -171 58z
m117 -1 c0 -5 -12 -10 -27 -10 -32 0 -109 -33 -135 -57 -21 -18 -31 -13 -22
10 14 39 184 91 184 57z m-32 -40 c-39 -30 -128 -59 -128 -41 0 14 100 61 128
61 l25 0 -25 -20z"/>
<path d="M2030 1825 c-17 -21 -8 -56 21 -77 25 -19 28 -19 57 -4 36 18 50 52
31 71 -22 20 -95 27 -109 10z m40 -10 c0 -17 16 -20 25 -5 3 6 13 10 21 10 26
0 13 -53 -16 -67 -21 -11 -28 -9 -47 9 -34 31 -29 63 10 67 4 1 7 -6 7 -14z"/>
<path d="M970 1805 c0 -10 7 -15 18 -13 21 4 19 22 -2 26 -10 2 -16 -3 -16
-13z"/>
<path d="M358 1803 c6 -2 12 -9 12 -15 0 -6 -7 -7 -16 -4 -8 3 -12 2 -9 -4 3
-6 12 -10 20 -10 7 0 16 -8 19 -17 5 -12 10 -13 17 -6 12 12 3 36 -11 28 -4
-3 -10 4 -13 15 -3 11 -11 20 -19 19 -10 0 -10 -2 0 -6z"/>
<path d="M300 1783 c0 -10 4 -14 8 -8 4 6 11 13 16 18 5 4 2 7 -7 7 -10 0 -17
-8 -17 -17z"/>
<path d="M60 1761 c0 -12 -4 -21 -9 -21 -5 0 -15 -16 -21 -35 -17 -53 -4 -111
35 -152 31 -33 35 -34 49 -20 15 14 14 21 -5 71 -11 31 -17 61 -14 67 12 18
16 99 6 99 -5 0 -16 3 -25 6 -12 4 -16 0 -16 -15z m37 -7 c-3 -3 -12 -4 -19
-1 -8 3 -5 6 6 6 11 1 17 -2 13 -5z m1 -37 c2 -10 -5 -21 -20 -26 -13 -6 -17
-10 -10 -10 6 -1 12 -8 12 -16 0 -8 -6 -15 -12 -15 -10 0 -9 -3 1 -9 7 -5 10
-14 7 -20 -4 -6 -1 -11 7 -11 20 0 29 -40 11 -47 -49 -19 -83 114 -42 164 15
18 42 12 46 -10z m12 -172 c-7 -9 -15 -13 -17 -11 -7 7 7 26 19 26 6 0 6 -6
-2 -15z"/>
<path d="M270 1751 c0 -10 19 -25 25 -20 1 2 -3 10 -11 17 -8 7 -14 8 -14 3z"/>
<path d="M312 1728 c-17 -17 -15 -58 4 -65 9 -3 20 0 24 7 7 11 11 11 24 1 19
-16 36 -6 36 19 0 20 -25 50 -42 50 -6 0 0 -8 13 -18 15 -13 20 -25 16 -37 -6
-14 -10 -15 -22 -5 -11 9 -18 10 -28 1 -8 -6 -17 -8 -20 -4 -13 12 -7 42 11
52 9 6 12 11 7 11 -6 0 -16 -5 -23 -12z"/>
<path d="M820 1720 c0 -5 7 -7 15 -4 8 4 15 8 15 10 0 2 -7 4 -15 4 -8 0 -15
-4 -15 -10z"/>
<path d="M859 1715 c-1 -11 0 -32 1 -47 1 -23 -2 -26 -22 -21 -21 4 -22 3 -5
-10 21 -18 22 -27 1 -27 -8 0 -12 -5 -9 -10 4 -6 11 -8 16 -5 13 9 11 -9 -3
-24 -11 -10 -9 -12 7 -9 12 2 21 -3 23 -16 6 -30 -12 -39 -39 -17 -21 17 -24
28 -24 81 0 49 4 64 19 76 15 11 16 14 5 14 -20 0 -39 -42 -39 -86 0 -46 25
-104 44 -104 9 0 16 -7 16 -15 0 -16 9 -19 34 -9 17 7 22 34 6 34 -5 0 -10 10
-10 23 0 13 -5 28 -11 34 -8 8 -8 30 -1 74 6 38 6 68 1 74 -6 5 -9 1 -10 -10z
m31 -209 c0 -2 -7 -6 -15 -10 -8 -3 -15 -1 -15 4 0 6 7 10 15 10 8 0 15 -2 15
-4z"/>
<path d="M1680 1706 c0 -2 8 -10 18 -17 15 -13 16 -12 3 4 -13 16 -21 21 -21
13z"/>
<path d="M545 1654 c-22 -22 -19 -42 12 -70 28 -26 53 -25 86 4 20 17 23 61 5
66 -44 14 -89 13 -103 0z m44 -16 c8 -20 10 -21 16 -5 8 19 30 23 40 7 11 -18
-5 -47 -31 -59 -22 -10 -30 -9 -45 5 -11 9 -19 27 -19 39 0 40 26 48 39 13z"/>
<path d="M2060 1594 c-48 -21 -70 -43 -70 -71 0 -21 4 -23 50 -23 28 0 50 -4
50 -9 0 -14 -40 -20 -66 -11 -13 5 -24 6 -24 1 0 -14 49 -19 93 -9 23 5 59 20
81 34 34 23 38 29 32 57 -3 17 -12 35 -19 39 -20 13 -89 8 -127 -8z m125 -4
c4 -6 -10 -10 -35 -10 -44 0 -104 -21 -132 -47 -16 -14 -18 -14 -18 0 0 36
166 88 185 57z m-11 -31 c-11 -18 -87 -49 -122 -49 -42 0 -34 16 22 41 46 21
111 26 100 8z m26 -7 c0 -17 -64 -62 -89 -62 -24 0 -9 17 30 34 22 10 43 24
46 32 7 19 13 17 13 -4z"/>
<path d="M1113 1588 c-5 -7 -9 -29 -8 -48 0 -33 2 -35 30 -32 115 12 167 13
180 2 26 -21 45 -4 45 40 0 46 -18 60 -54 40 -24 -12 -137 -10 -167 4 -9 4
-20 2 -26 -6z m132 -18 c33 4 70 11 83 15 25 8 31 -12 10 -33 -9 -9 -9 -12 0
-12 7 0 12 -7 12 -15 0 -18 -1 -18 -36 0 -37 19 -95 19 -141 0 -46 -19 -68
-13 -54 14 8 14 8 20 -1 23 -6 2 -8 9 -5 15 6 9 16 8 40 -1 22 -9 50 -11 92
-6z"/>
<path d="M398 1529 c-16 -25 -110 -69 -149 -69 -38 0 -44 -14 -24 -56 18 -39
48 -45 65 -14 6 11 32 31 58 45 56 29 51 33 -10 6 -24 -10 -49 -28 -56 -40
-16 -27 -46 -29 -39 -2 3 12 -1 22 -9 25 -26 10 -14 26 19 26 43 1 117 35 143
67 24 28 49 23 41 -8 -3 -12 0 -19 10 -19 8 0 13 -6 10 -12 -2 -7 -17 -12 -33
-11 -29 2 -29 2 -5 -8 49 -20 63 4 35 59 -18 37 -39 41 -56 11z"/>
<path d="M1794 1519 c-10 -17 13 -36 27 -22 12 12 4 33 -11 33 -5 0 -12 -5
-16 -11z m26 -9 c0 -5 -5 -10 -11 -10 -5 0 -7 5 -4 10 3 6 8 10 11 10 2 0 4
-4 4 -10z"/>
<path d="M1750 1503 c0 -10 4 -14 8 -8 4 6 11 13 16 18 5 4 2 7 -7 7 -10 0
-17 -8 -17 -17z"/>
<path d="M1833 1480 c-4 -15 -11 -20 -24 -17 -26 7 -59 -20 -59 -49 0 -28 28
-44 40 -24 7 11 12 11 23 2 23 -20 43 11 29 43 -10 21 -9 25 3 25 17 0 20 26
4 35 -6 4 -13 -3 -16 -15z m2 -51 c4 -5 4 -17 1 -26 -5 -12 -9 -13 -22 -3 -11
10 -18 10 -26 2 -19 -19 -28 -14 -28 13 0 42 52 52 75 14z"/>
<path d="M1726 1483 c-12 -12 -6 -33 9 -33 8 0 15 6 15 14 0 17 -14 28 -24 19z"/>
<path d="M2110 1450 c0 -11 2 -20 4 -20 2 0 6 9 9 20 3 11 1 20 -4 20 -5 0 -9
-9 -9 -20z"/>
<path d="M1580 1446 c0 -9 -7 -28 -16 -41 -12 -19 -15 -40 -12 -82 4 -46 10
-60 31 -78 15 -11 27 -26 27 -33 0 -16 10 -15 33 2 19 15 19 16 -12 74 -8 16
-10 46 -5 93 4 46 3 69 -4 69 -6 0 -17 3 -26 6 -11 4 -16 1 -16 -10z m40 -12
c0 -2 -7 -4 -15 -4 -8 0 -15 4 -15 10 0 5 7 7 15 4 8 -4 15 -8 15 -10z m0 -40
c0 -21 -4 -25 -20 -21 -11 3 -20 1 -20 -4 0 -5 7 -9 15 -9 8 0 15 -4 15 -10 0
-5 -7 -10 -15 -10 -8 0 -15 -4 -15 -10 0 -5 7 -10 15 -10 18 0 20 -20 3 -21
-7 0 -3 -4 10 -9 22 -9 30 -34 13 -44 -29 -18 -61 31 -61 95 0 50 15 79 40 79
15 0 20 -7 20 -26z"/>
<path d="M2136 1445 c-3 -8 -1 -15 4 -15 6 0 10 7 10 15 0 8 -2 15 -4 15 -2 0
-6 -7 -10 -15z"/>
<path d="M555 1374 c-21 -8 -49 -24 -62 -36 -23 -21 -32 -58 -14 -58 5 0 8 -8
7 -17 -3 -41 162 -9 202 39 9 11 7 22 -6 49 -14 28 -23 34 -52 36 -19 1 -53
-5 -75 -13z m99 0 c23 -9 20 -23 -3 -17 -26 7 -125 -23 -141 -42 -14 -17 -30
-20 -30 -5 0 13 41 39 88 56 42 15 63 17 86 8z m6 -34 c0 -14 -72 -49 -119
-56 -51 -8 -55 8 -9 32 60 31 128 44 128 24z m17 -24 c-7 -18 -86 -60 -95 -51
-4 4 1 12 12 19 10 6 32 20 50 32 34 23 42 23 33 0z m-112 -57 c-8 -12 -75
-12 -75 0 0 6 15 11 33 13 37 4 50 0 42 -13z"/>
<path d="M1306 1374 c-9 -8 -16 -21 -16 -28 0 -13 36 -56 47 -56 3 0 -2 9 -11
19 -20 22 -18 62 2 69 8 2 16 -6 19 -18 6 -22 7 -22 19 -5 15 20 44 14 44 -9
0 -8 -15 -27 -32 -41 -18 -15 -28 -25 -23 -23 40 16 64 33 68 49 7 27 -16 53
-41 46 -12 -3 -25 -1 -28 4 -8 14 -31 11 -48 -7z"/>
<path d="M914 1366 c-17 -8 -34 -21 -38 -31 -7 -19 -7 -56 0 -38 4 8 13 9 35
1 36 -12 110 -4 152 17 24 12 32 13 39 3 5 -9 8 -9 8 -2 0 7 -8 20 -17 31 -10
10 -14 13 -10 7 6 -10 -4 -12 -45 -10 -29 2 -39 2 -23 -1 57 -7 62 -15 20 -29
-52 -16 -104 -17 -133 -1 l-23 13 21 19 c14 13 43 21 93 25 l72 7 -60 1 c-33
1 -74 -5 -91 -12z"/>
<path d="M920 1330 c-11 -8 -7 -9 15 -4 37 8 45 14 19 14 -10 0 -26 -5 -34
-10z"/>
<path d="M2032 1309 c-17 -26 -110 -70 -137 -64 -11 3 -26 1 -34 -4 -12 -8
-12 -14 3 -45 23 -50 33 -52 69 -18 39 36 97 62 143 62 39 0 42 11 18 58 -18
37 -43 41 -62 11z m48 -9 c0 -11 5 -20 10 -20 6 0 10 -7 10 -15 0 -11 -11 -15
-35 -15 -44 0 -113 -33 -141 -68 -23 -28 -49 -22 -39 9 4 11 3 18 -2 17 -8 -3
-13 5 -13 23 0 6 7 8 17 5 25 -10 131 33 151 60 21 29 42 31 42 4z"/>
<path d="M127 1282 c-9 -10 -24 -35 -33 -57 -16 -39 -16 -39 10 -60 34 -27
120 -58 143 -52 13 3 11 5 -7 6 -14 0 -53 14 -88 31 -56 26 -63 32 -57 52 11
36 38 74 43 60 7 -23 86 -55 150 -62 59 -6 62 -5 56 14 -7 26 -63 76 -84 76
-8 0 3 -11 25 -23 22 -12 42 -31 44 -42 3 -19 2 -19 -16 -3 -25 23 -98 48
-139 48 -34 0 -46 14 -21 23 7 3 7 6 1 6 -6 1 -18 -7 -27 -17z m149 -48 l39
-19 -29 -3 c-31 -4 -112 23 -122 40 -10 16 66 4 112 -18z"/>
<path d="M208 1293 c6 -2 18 -2 25 0 6 3 1 5 -13 5 -14 0 -19 -2 -12 -5z"/>
<path d="M1110 1272 c0 -39 -34 -53 -134 -60 -69 -4 -81 -2 -94 14 -13 18 -14
18 -10 -1 3 -17 12 -20 71 -23 42 -2 90 3 123 13 52 15 54 17 54 50 0 19 -2
35 -5 35 -3 0 -5 -13 -5 -28z"/>
<path d="M592 1223 c2 -10 10 -18 18 -18 8 0 16 8 18 18 2 12 -3 17 -18 17
-15 0 -20 -5 -18 -17z m28 -3 c0 -5 -4 -10 -10 -10 -5 0 -10 5 -10 10 0 6 5
10 10 10 6 0 10 -4 10 -10z"/>
<path d="M331 1160 c-2 -35 -12 -47 -41 -53 -25 -4 -25 -4 2 -6 31 -1 52 27
45 62 -4 20 -4 20 -6 -3z"/>
<path d="M1277 1145 c-18 -25 -18 -26 4 -65 19 -33 20 -42 9 -55 -11 -14 -11
-16 1 -13 8 2 13 -3 11 -10 -1 -8 2 -11 8 -7 6 4 9 14 6 22 -4 10 3 8 23 -6
53 -38 76 -42 100 -17 11 12 21 31 21 43 0 28 -39 83 -79 110 -44 30 -81 29
-104 -2z m82 1 c39 -20 91 -82 91 -108 0 -17 -5 -14 -29 18 -34 47 -56 68 -96
88 -20 11 -24 16 -12 16 10 0 31 -7 46 -14z m1 -108 c21 -16 46 -28 56 -28 13
0 15 -3 7 -11 -16 -16 -46 -3 -91 39 -46 42 -66 77 -56 94 5 7 15 -3 26 -28
11 -21 37 -51 58 -66z m-20 85 c25 -17 68 -64 83 -89 5 -10 3 -14 -9 -14 -19
0 -114 91 -114 109 0 16 11 14 40 -6z"/>
<path d="M750 1126 c0 -20 17 -29 26 -15 4 8 3 9 -4 5 -7 -4 -12 -3 -12 3 0 5
6 12 13 14 7 3 5 6 -5 6 -10 1 -18 -5 -18 -13z"/>
<path d="M795 1129 c-4 -6 2 -13 14 -16 12 -3 21 -12 21 -19 0 -8 8 -14 18
-14 13 0 14 2 3 9 -11 7 -11 9 0 14 10 4 9 6 -3 6 -10 1 -18 8 -18 16 0 17
-26 20 -35 4z"/>
<path d="M2120 1131 c-30 -8 -50 -62 -30 -86 20 -24 71 -46 120 -51 44 -4 44
-4 -15 14 -69 21 -105 41 -105 59 0 8 13 5 37 -10 20 -12 42 -22 48 -23 64
-13 71 -11 21 5 -33 11 -66 27 -75 35 -14 15 -12 16 22 16 21 0 53 -7 72 -14
19 -8 35 -11 35 -7 0 11 -66 30 -115 34 -40 3 -40 3 -13 15 22 9 37 8 75 -3
49 -15 74 -12 32 3 -39 15 -82 20 -109 13z"/>
<path d="M1645 1073 c-14 -22 -27 -53 -28 -69 -2 -25 4 -31 57 -57 38 -19 80
-31 121 -34 l62 -5 7 32 c3 18 6 50 6 71 0 35 -4 40 -46 65 -29 17 -67 29
-100 32 -52 4 -52 4 -79 -35z m127 16 c41 -11 97 -53 86 -64 -4 -4 -18 2 -33
13 -29 23 -118 47 -140 38 -15 -5 -20 5 -8 17 9 10 53 8 95 -4z m-91 -35 c18
-22 64 -44 91 -43 17 1 14 4 -12 11 -19 5 -46 18 -60 29 l-25 21 43 -6 c24 -4
63 -16 85 -28 41 -21 42 -22 17 -30 -21 -6 -20 -7 8 -3 28 4 32 2 32 -18 0
-12 -3 -33 -7 -46 -6 -22 -9 -23 -63 -18 -53 4 -151 44 -165 66 -7 13 21 81
33 81 5 0 15 -7 23 -16z"/>
<path d="M721 1088 c-1 -10 5 -18 13 -18 20 0 29 17 15 26 -8 4 -9 3 -5 -4 4
-7 3 -12 -3 -12 -5 0 -12 6 -14 13 -3 7 -6 5 -6 -5z"/>
<path d="M762 1068 c-31 -31 0 -86 32 -59 11 9 15 9 18 0 6 -19 38 -2 38 20 0
41 -59 68 -88 39z m66 -10 c13 -13 16 -48 4 -48 -4 0 -13 5 -20 12 -9 9 -15 9
-24 0 -7 -7 -16 -12 -20 -12 -10 0 -11 44 -1 53 11 11 48 8 61 -5z"/>
<path d="M526 1031 c-14 -30 -17 -54 -14 -96 4 -48 10 -61 39 -90 30 -29 37
-31 53 -20 12 9 15 18 10 27 -24 37 -33 87 -27 146 4 41 2 62 -5 62 -6 0 -16
2 -24 5 -8 3 -20 -10 -32 -34z m54 13 c0 -2 -7 -4 -15 -4 -8 0 -15 4 -15 10 0
5 7 7 15 4 8 -4 15 -8 15 -10z m-2 -36 c-2 -16 -9 -22 -23 -20 -19 2 -19 2 -2
-11 21 -17 22 -27 2 -27 -8 0 -15 -5 -15 -11 0 -6 7 -9 15 -5 18 7 20 -5 3
-23 -11 -11 -10 -13 4 -8 18 6 35 -24 23 -43 -3 -5 2 -10 12 -10 14 0 15 -2 4
-9 -9 -6 -19 -4 -28 5 -8 8 -18 14 -22 14 -15 0 -31 51 -31 98 0 51 12 72 43
72 13 0 18 -6 15 -22z"/>
<path d="M266 997 c-25 -18 -17 -56 17 -81 26 -19 30 -19 54 -6 55 32 55 85 0
85 -14 0 -29 3 -33 8 -10 10 -18 9 -38 -6z m44 -26 c1 -14 2 -14 11 2 13 21
35 22 43 1 11 -28 -38 -70 -67 -58 -21 8 -37 47 -26 67 11 19 39 12 39 -12z"/>
<path d="M1066 971 c-23 -25 -105 -45 -154 -36 -31 5 -41 3 -46 -10 -3 -9 -3
-22 1 -28 4 -7 8 -18 8 -26 0 -8 8 -19 17 -25 13 -8 22 -6 40 11 29 27 134 51
150 35 8 -8 17 -8 30 -1 15 8 18 17 12 42 -7 33 -21 57 -34 57 -4 0 -15 -9
-24 -19z m41 -21 c-3 -11 -1 -23 4 -26 22 -13 7 -26 -25 -20 -44 8 -129 -10
-157 -35 -33 -29 -56 -22 -38 12 6 13 6 19 -1 19 -5 0 -10 6 -10 14 0 11 9 13
34 9 42 -7 130 13 147 33 6 8 20 14 31 14 15 0 19 -5 15 -20z"/>
<path d="M2145 980 c-9 -15 4 -30 23 -29 15 1 15 2 0 6 -10 2 -18 8 -18 13 0
5 8 11 18 13 15 4 15 5 0 6 -9 0 -20 -3 -23 -9z"/>
<path d="M94 909 c-10 -17 13 -36 27 -22 12 12 4 33 -11 33 -5 0 -12 -5 -16
-11z m26 -9 c0 -5 -4 -10 -10 -10 -5 0 -10 5 -10 10 0 6 5 10 10 10 6 0 10 -4
10 -10z"/>
<path d="M1480 906 c0 -20 17 -29 26 -15 4 8 3 9 -4 5 -7 -4 -12 -3 -12 3 0 5
6 12 13 14 7 3 5 6 -5 6 -10 1 -18 -5 -18 -13z"/>
<path d="M1525 911 c-3 -5 0 -13 6 -17 8 -4 9 -3 5 4 -11 19 5 14 20 -5 12
-16 12 -16 7 5 -5 22 -27 30 -38 13z"/>
<path d="M50 897 c0 -10 8 -17 18 -17 9 0 13 4 7 8 -5 4 -13 11 -17 16 -5 5
-8 2 -8 -7z"/>
<path d="M135 880 c-4 -6 -3 -16 3 -22 6 -6 12 -6 17 2 4 6 3 16 -3 22 -6 6
-12 6 -17 -2z"/>
<path d="M1572 875 c-11 -12 -10 -15 3 -15 8 0 15 7 15 15 0 18 -2 18 -18 0z"/>
<path d="M24 868 c-4 -6 0 -16 9 -23 10 -7 17 -24 17 -38 0 -31 16 -43 35 -27
11 9 18 10 29 1 18 -15 40 11 31 39 -8 27 -32 37 -78 35 -28 -1 -37 2 -33 12
7 16 0 17 -10 1z m114 -63 c3 -14 -1 -16 -27 -10 -20 4 -31 3 -31 -4 0 -6 -4
-11 -10 -11 -17 0 -11 48 8 59 21 12 55 -7 60 -34z"/>
<path d="M1450 865 c0 -10 7 -15 18 -13 21 4 19 22 -2 26 -10 2 -16 -3 -16
-13z"/>
<path d="M1492 848 c-7 -7 -12 -25 -12 -40 0 -21 5 -28 20 -28 11 0 20 5 20
11 0 8 5 8 15 -1 19 -16 45 -6 45 18 0 40 -61 67 -88 40z m66 -10 c13 -13 16
-48 4 -48 -4 0 -13 5 -20 12 -9 9 -15 9 -24 0 -7 -7 -16 -12 -20 -12 -10 0
-11 44 -1 53 11 11 48 8 61 -5z"/>
<path d="M1884 816 c-10 -25 0 -48 27 -68 25 -19 28 -19 58 -3 59 30 52 79
-12 81 -34 2 -36 1 -26 -19 10 -18 12 -19 21 -4 14 26 38 21 38 -8 0 -15 -10
-31 -26 -41 -24 -17 -26 -16 -51 8 -21 22 -23 29 -14 47 8 14 8 21 1 21 -6 0
-13 -6 -16 -14z"/>
<path d="M2180 816 c0 -20 17 -29 26 -15 4 8 3 9 -4 5 -7 -4 -12 -3 -12 3 0 5
6 12 13 14 7 3 5 6 -5 6 -10 1 -18 -5 -18 -13z"/>
<path d="M2227 823 c-12 -12 -7 -23 11 -23 13 0 14 2 3 9 -11 7 -11 9 0 14 8
3 9 6 3 6 -6 1 -14 -2 -17 -6z"/>
<path d="M1288 754 c-32 -63 -14 -184 27 -184 8 0 15 -6 15 -14 0 -22 13 -26
34 -10 13 9 16 17 9 26 -24 32 -34 94 -25 151 5 32 5 60 1 63 -5 3 -9 -2 -9
-10 0 -19 -16 -21 -26 -4 -4 7 -3 8 4 4 7 -4 12 -2 12 3 0 24 -26 8 -42 -25z
m52 -30 c0 -22 -3 -25 -22 -21 -21 5 -21 5 -5 -7 21 -16 22 -26 2 -26 -8 0
-15 -4 -15 -10 0 -5 7 -7 15 -4 18 7 20 -7 3 -25 -11 -10 -9 -12 7 -9 16 2 20
-2 20 -24 -1 -16 3 -28 8 -28 4 0 5 -4 2 -10 -3 -5 -22 6 -40 25 -30 29 -35
41 -35 80 0 56 14 85 40 85 15 0 20 -7 20 -26z"/>
<path d="M2150 775 c0 -8 8 -15 18 -15 13 0 14 2 3 9 -11 7 -11 9 0 14 10 4 9
6 -3 6 -10 1 -18 -6 -18 -14z"/>
<path d="M275 752 c-47 -26 -50 -30 -49 -66 2 -47 17 -58 72 -52 38 5 42 4 42
-17 1 -20 2 -20 11 -4 6 9 15 14 21 11 7 -4 8 -2 4 5 -4 6 -11 9 -16 6 -4 -3
-14 3 -21 12 -12 14 -11 17 5 27 10 6 34 21 52 33 26 17 34 19 34 8 0 -8 -19
-26 -42 -40 -28 -17 -34 -24 -18 -19 65 18 82 47 58 99 -10 21 -18 25 -57 25
-31 0 -62 -9 -96 -28z m139 9 c3 -4 -17 -11 -45 -14 -28 -4 -71 -17 -95 -31
-46 -26 -58 -22 -25 8 38 35 151 60 165 37z m-4 -30 c0 -12 -76 -47 -117 -55
-40 -7 -52 8 -21 26 58 33 138 50 138 29z m-90 -73 c0 -11 -39 -20 -60 -13
-33 11 -23 22 20 21 22 -1 40 -4 40 -8z"/>
<path d="M984 755 c-9 -22 4 -62 21 -69 13 -4 12 -1 -2 20 -13 21 -14 30 -5
45 8 12 8 19 2 19 -6 0 -13 -7 -16 -15z"/>
<path d="M1027 749 c6 -23 12 -24 28 -2 7 9 17 13 23 9 23 -14 12 -46 -20 -66
-19 -12 -26 -20 -17 -20 25 0 69 39 69 60 0 23 -25 38 -61 38 -21 0 -25 -4
-22 -19z"/>
<path d="M2192 758 c-10 -13 -15 -33 -13 -55 1 -16 41 -17 41 -2 0 8 5 8 15
-1 9 -8 15 -9 15 -2 0 18 -20 25 -35 12 -19 -16 -34 -5 -28 20 3 12 19 24 37
29 30 9 30 9 5 10 -15 1 -31 -5 -37 -11z"/>
<path d="M624 716 c-30 -22 -60 -94 -48 -114 29 -48 213 -96 235 -61 14 22 10
35 -5 14 -11 -15 -22 -17 -69 -12 -60 6 -146 42 -155 65 -3 8 3 29 12 49 l16
34 29 -24 c34 -29 109 -51 150 -45 24 4 31 0 34 -16 2 -12 5 -5 6 15 1 23 -5
41 -16 51 -54 47 -153 70 -189 44z m139 -22 c30 -16 59 -45 52 -52 -2 -2 -14
3 -27 11 -12 8 -34 18 -48 21 -17 5 -12 -1 15 -16 38 -22 39 -23 14 -26 -29
-3 -121 30 -119 43 1 4 -6 13 -15 18 -14 8 -15 11 -4 19 19 12 92 2 132 -18z"/>
<path d="M678 683 c6 -2 18 -2 25 0 6 3 1 5 -13 5 -14 0 -19 -2 -12 -5z"/>
<path d="M1768 679 c-16 -25 -110 -69 -149 -69 -38 0 -44 -14 -24 -56 18 -39
38 -43 63 -13 24 29 111 72 133 66 11 -3 19 -1 19 4 0 29 -135 -23 -158 -60
-16 -27 -46 -28 -39 -2 3 12 -1 22 -9 25 -26 10 -14 26 19 26 43 0 116 34 143
67 24 28 49 23 41 -8 -3 -10 0 -17 7 -16 6 1 10 -6 10 -15 -1 -10 2 -18 7 -18
14 0 11 23 -7 58 -18 37 -39 41 -56 11z"/>
<path d="M2050 632 c0 -12 -4 -24 -10 -27 -5 -3 -14 -23 -20 -43 -19 -71 26
-161 73 -146 22 6 22 6 2 -10 -11 -8 -15 -15 -10 -15 16 0 45 25 38 33 -21 21
-33 86 -27 149 4 44 3 67 -4 67 -6 0 -17 3 -26 6 -11 4 -16 0 -16 -14z m40 -8
c0 -2 -7 -4 -15 -4 -8 0 -15 4 -15 10 0 5 7 7 15 4 8 -4 15 -8 15 -10z m-2
-42 c3 -17 -2 -22 -20 -22 -22 -1 -22 -1 -4 -15 19 -14 18 -15 -5 -24 -24 -10
-24 -10 -1 -10 24 -1 30 -16 10 -24 -8 -4 -7 -6 3 -6 32 -2 35 -51 4 -51 -43
0 -65 128 -29 165 21 20 38 15 42 -13z"/>
<path d="M33 569 c67 -16 131 -59 109 -73 -6 -3 -15 1 -22 9 -12 15 -108 50
-116 42 -2 -2 15 -10 40 -17 25 -7 54 -21 65 -31 11 -10 25 -19 32 -19 11 0 5
-62 -8 -84 -6 -9 -81 -3 -118 9 -18 6 -19 6 -2 -5 10 -6 42 -14 72 -17 l54 -6
11 42 c15 55 7 101 -21 122 -26 19 -87 39 -115 38 -11 -1 -2 -5 19 -10z"/>
<path d="M970 518 c-28 -31 -25 -55 12 -88 25 -23 30 -32 20 -42 -14 -14 -16
-38 -2 -38 5 0 7 7 4 15 -4 8 -1 15 4 15 6 0 13 -8 16 -17 3 -10 4 -6 2 9 l-3
27 38 -15 c21 -9 48 -14 61 -11 19 4 18 5 -7 6 -39 2 -102 35 -86 45 7 4 19 2
27 -5 8 -6 32 -15 55 -19 34 -6 41 -4 50 13 16 28 -15 66 -81 100 -65 33 -83
34 -110 5z m82 -4 c47 -19 110 -72 102 -86 -3 -5 -18 3 -32 17 -32 32 -65 50
-110 60 -18 3 -30 11 -26 16 7 13 17 11 66 -7z m-36 -91 c-10 -10 -56 38 -56
59 0 15 7 11 31 -17 18 -20 29 -39 25 -42z m63 39 c45 -28 64 -52 39 -52 -26
0 -113 49 -126 71 -13 21 -12 21 15 15 15 -4 48 -19 72 -34z"/>
<path d="M20 496 c14 -8 36 -15 50 -15 23 1 22 2 -5 9 -16 4 -39 11 -50 14
-13 5 -12 2 5 -8z"/>
<path d="M500 480 c0 -6 5 -8 10 -5 6 3 10 2 10 -4 0 -6 -11 -13 -25 -17 -26
-6 -33 -28 -14 -39 6 -4 13 2 16 14 3 12 12 21 20 21 8 0 13 7 11 17 -3 19
-28 31 -28 13z"/>
<path d="M545 479 c-9 -14 47 -61 59 -49 12 12 -3 32 -20 26 -10 -4 -14 0 -12
11 4 19 -17 29 -27 12z m25 -3 c0 -3 -4 -8 -10 -11 -5 -3 -10 -1 -10 4 0 6 5
11 10 11 6 0 10 -2 10 -4z m30 -36 c0 -5 -2 -10 -4 -10 -3 0 -8 5 -11 10 -3 6
-1 10 4 10 6 0 11 -4 11 -10z"/>
<path d="M1465 439 c-29 -8 -28 -8 7 -4 42 4 78 -3 78 -16 0 -5 -19 -9 -42 -9
-38 -1 -71 -10 -130 -35 -34 -14 -18 15 20 35 25 14 29 19 12 14 -34 -9 -60
-33 -60 -56 0 -21 35 -25 43 -5 6 16 73 37 118 37 32 -1 33 -1 15 -15 -11 -8
-15 -15 -9 -15 5 0 18 9 29 21 l19 21 17 -39 c10 -21 18 -32 18 -24 0 20 -42
91 -54 91 -6 0 -20 2 -31 4 -11 2 -33 0 -50 -5z"/>
<path d="M1821 431 c-75 -26 -97 -50 -85 -93 9 -31 12 -33 62 -36 36 -2 52 -7
52 -17 0 -8 4 -17 10 -20 6 -3 7 1 4 9 -4 10 -1 16 7 16 12 0 12 2 1 9 -10 6
-5 11 16 20 17 7 41 24 54 38 21 23 19 23 -26 -6 -49 -30 -76 -39 -76 -23 0 4
25 20 55 36 59 31 62 34 43 58 -21 25 -59 28 -117 9z m105 -13 c4 -6 3 -8 -4
-4 -17 11 -104 -13 -144 -40 -39 -25 -52 -20 -20 8 48 43 150 65 168 36z m-24
-38 c-25 -21 -82 -40 -121 -40 -21 0 -22 2 -10 17 21 24 69 42 114 42 l40 0
-23 -19z m-72 -60 c0 -5 -15 -10 -34 -10 -19 0 -38 5 -41 10 -4 6 10 10 34 10
23 0 41 -4 41 -10z"/>
<path d="M510 410 c-36 -36 -20 -59 40 -57 52 2 64 23 31 56 -26 26 -46 26
-71 1z m64 -9 c24 -27 14 -38 -30 -37 -42 2 -53 16 -29 40 22 21 38 20 59 -3z"/>
<path d="M1455 360 c-28 -7 -28 -8 -5 -9 14 0 32 4 40 9 17 11 8 11 -35 0z"/>
<path d="M320 345 c0 -9 -7 -23 -15 -31 -35 -35 -16 -166 26 -179 10 -4 19
-13 19 -21 0 -17 10 -17 32 0 17 12 17 15 -2 54 -17 34 -19 55 -15 112 3 39 1
70 -4 70 -5 0 -16 3 -25 6 -11 4 -16 1 -16 -11z m37 -11 c-3 -3 -12 -4 -19 -1
-8 3 -5 6 6 6 11 1 17 -2 13 -5z m-2 -39 c0 -13 -6 -20 -17 -19 -23 2 -23 -12
-1 -20 14 -6 14 -8 -3 -21 -18 -14 -18 -14 0 -15 14 0 16 -3 7 -14 -9 -11 -7
-15 10 -19 13 -4 20 -12 17 -24 -5 -26 -40 -22 -55 7 -16 31 -17 104 -2 131
13 25 44 21 44 -6z"/>
<path d="M718 319 c-23 -40 -23 -46 5 -59 20 -10 20 -10 5 3 -22 18 -23 37 -3
37 9 0 15 7 13 16 -5 27 21 28 33 1 14 -30 106 -87 142 -87 30 0 37 -23 11
-38 -9 -5 -15 -13 -14 -18 4 -20 -21 -14 -30 8 -13 27 -88 78 -116 78 -10 0 6
-12 35 -27 31 -15 61 -38 70 -55 21 -36 42 -35 64 3 26 46 22 59 -16 59 -38 0
-132 59 -142 90 -9 29 -37 24 -57 -11z"/>
<path d="M1547 297 c-45 -23 -72 -30 -120 -31 -57 -1 -61 1 -68 24 -4 14 -7
18 -8 8 -2 -36 10 -48 53 -48 71 0 190 39 200 66 3 8 4 13 3 13 -1 -1 -28 -16
-60 -32z"/>
<path d="M35 270 c-16 -51 32 -92 85 -70 32 13 50 54 32 72 -6 6 -33 12 -61
15 -43 3 -50 1 -56 -17z m45 -5 c0 -20 10 -19 25 2 16 21 35 9 35 -23 0 -27
-38 -51 -65 -41 -17 7 -38 54 -29 68 9 15 34 10 34 -6z"/>
<path d="M1160 263 c0 -10 -7 -27 -15 -37 -18 -24 -20 -99 -3 -129 6 -12 23
-34 38 -48 23 -23 28 -25 45 -13 12 9 15 17 8 26 -24 32 -34 94 -25 150 8 53
7 57 -12 62 -32 9 -36 7 -36 -11z m35 -11 c-3 -3 -11 0 -18 7 -9 10 -8 11 6 5
10 -3 15 -9 12 -12z m5 -38 c0 -21 -3 -24 -22 -19 -21 6 -22 5 -5 -8 21 -18
22 -27 1 -27 -8 0 -12 -5 -9 -10 4 -6 11 -8 16 -5 13 9 11 -9 -3 -24 -11 -10
-9 -12 7 -9 15 2 21 -3 23 -20 3 -20 0 -23 -19 -20 -29 4 -49 41 -49 91 0 48
15 77 40 77 15 0 20 -7 20 -26z m30 -158 c0 -2 -7 -6 -15 -10 -8 -3 -15 -1
-15 4 0 6 7 10 15 10 8 0 15 -2 15 -4z"/>
<path d="M2122 247 c-24 -25 -55 -94 -48 -105 9 -15 111 -60 146 -66 27 -5 24
-2 -16 12 -114 40 -133 65 -97 120 l15 24 22 -21 c20 -18 106 -56 106 -46 0 3
-22 14 -50 26 -52 22 -69 46 -25 35 58 -14 77 -15 35 -1 -24 8 -52 12 -62 9
-10 -3 -18 -1 -18 5 0 15 38 24 78 17 27 -4 31 -3 17 4 -37 16 -80 11 -103
-13z"/>
<path d="M1525 181 c-8 -15 3 -31 21 -31 9 0 14 7 12 17 -4 20 -24 28 -33 14z
m25 -11 c0 -5 -4 -10 -10 -10 -5 0 -10 5 -10 10 0 6 5 10 10 10 6 0 10 -4 10
-10z"/>
<path d="M1570 178 c0 -22 50 -62 62 -50 13 13 0 35 -16 29 -7 -3 -19 -1 -27
4 -12 8 -12 10 1 19 13 8 12 10 -2 10 -10 0 -18 -6 -18 -12z m60 -32 c0 -3 -4
-8 -10 -11 -5 -3 -10 -1 -10 4 0 6 5 11 10 11 6 0 10 -2 10 -4z"/>
<path d="M1510 141 c13 -10 13 -12 0 -22 -13 -9 -13 -10 0 -6 8 2 15 10 15 17
0 7 -7 15 -15 17 -13 4 -13 3 0 -6z"/>
<path d="M1542 114 c-26 -18 -29 -46 -6 -65 13 -10 17 -10 23 0 6 10 14 10 28
2 24 -12 33 -6 33 24 0 22 -28 55 -46 55 -5 0 -20 -7 -32 -16z m66 -33 c3 -19
0 -21 -21 -16 -14 4 -28 2 -32 -4 -8 -14 -25 -5 -25 14 0 7 7 20 15 29 21 20
59 6 63 -23z"/>
<path d="M645 100 c-8 -25 16 -66 44 -75 31 -9 81 21 81 49 0 30 -17 44 -53
44 -21 0 -27 -4 -23 -15 3 -8 6 -17 6 -20 0 -4 9 2 21 13 17 16 22 16 29 4 14
-22 12 -27 -12 -50 -32 -30 -54 -25 -76 17 -10 17 -9 25 4 37 13 14 13 16 0
16 -8 0 -18 -9 -21 -20z"/>
<path d="M1854 94 c-7 -26 7 -48 39 -65 44 -24 109 38 78 74 -6 8 -33 14 -61
15 -45 1 -50 -1 -56 -24z m53 0 c5 -15 7 -15 15 0 11 20 34 21 42 0 6 -15 -34
-64 -53 -64 -18 0 -41 31 -41 56 0 27 27 33 37 8z"/>
<path d="M86 55 c-22 -7 -49 -24 -60 -36 -22 -23 -9 -18 34 12 36 25 113 35
128 16 10 -12 8 -13 -12 -10 -22 5 -132 -24 -124 -32 2 -2 31 4 65 13 60 16
93 11 63 -8 -9 -6 -10 -10 -3 -10 6 0 15 5 19 11 4 8 9 7 16 -2 6 -10 7 -6 2
11 -3 14 -11 31 -16 38 -13 16 -63 15 -112 -3z"/>
</g>
</svg>
