<?xml version="1.0" standalone="no"?>
<!DOCTYPE svg PUBLIC "-//W3C//DTD SVG 20010904//EN"
 "http://www.w3.org/TR/2001/REC-SVG-20010904/DTD/svg10.dtd">
<svg version="1.0" xmlns="http://www.w3.org/2000/svg"
 width="900.000000pt" height="520.000000pt" viewBox="0 0 900.000000 520.000000"
 preserveAspectRatio="xMidYMid meet">

<g transform="translate(0.000000,520.000000) scale(0.100000,-0.100000)"
fill="#000000" stroke="none">
<path d="M5385 4803 c-41 -8 -91 -12 -120 -8 -78 9 -443 5 -513 -6 -81 -12
-164 -44 -203 -76 -16 -14 -43 -52 -59 -84 -17 -32 -39 -63 -49 -69 -20 -10
-139 -159 -162 -201 -7 -15 -11 -62 -10 -131 2 -140 -8 -174 -71 -245 -75 -85
-93 -134 -112 -298 -10 -83 -25 -157 -36 -183 -27 -61 -112 -181 -245 -347
-135 -168 -289 -396 -350 -520 -52 -106 -184 -404 -219 -499 -48 -127 -97
-323 -116 -461 -38 -290 -73 -484 -94 -530 -29 -64 -79 -121 -125 -144 -20
-10 -94 -28 -166 -40 -301 -51 -367 -88 -415 -226 -11 -32 -20 -76 -20 -97 0
-32 -6 -45 -36 -72 -37 -34 -37 -34 -14 -46 12 -6 33 -9 47 -5 27 7 63 -2 63
-15 0 -8 52 -128 69 -159 14 -27 29 -22 42 13 7 20 17 36 22 36 5 0 27 -16 48
-35 22 -19 48 -35 60 -35 20 0 21 4 15 58 -7 65 -4 73 44 97 32 17 100 18
1134 17 1063 -1 1101 -2 1125 -20 14 -10 32 -31 39 -45 15 -31 51 -46 63 -26
26 46 57 84 70 87 9 2 27 -8 40 -22 28 -30 41 -32 75 -9 27 17 64 81 64 109 0
36 -35 125 -62 158 -65 80 -171 103 -316 70 -65 -15 -73 -15 -107 1 -20 10
-42 30 -50 44 -13 26 -11 29 67 116 103 115 131 156 173 254 77 182 90 275 60
429 -47 230 -136 391 -276 496 -113 85 -145 97 -290 105 -150 9 -161 15 -185
97 -19 68 -21 152 -4 236 l13 67 -40 58 c-22 32 -48 73 -57 92 -19 35 -15 81
7 81 18 0 111 -37 176 -69 l57 -29 80 35 c43 20 100 38 126 41 l46 4 22 62
c39 109 42 116 71 156 34 47 51 50 77 13 22 -31 62 -168 62 -210 0 -20 17 -43
68 -92 85 -82 109 -136 116 -272 3 -51 9 -95 14 -98 4 -3 37 -27 73 -52 35
-26 132 -82 214 -124 179 -92 224 -124 308 -216 112 -122 189 -301 203 -469
15 -177 -26 -446 -91 -601 -16 -38 -24 -71 -21 -85 6 -22 12 -24 60 -24 46 0
61 -5 98 -33 76 -58 88 -86 88 -197 0 -93 1 -98 23 -104 12 -3 126 -6 254 -6
127 0 238 -3 247 -6 9 -3 26 -24 38 -45 12 -21 27 -39 33 -39 16 0 55 43 55
61 0 20 20 39 40 39 9 0 27 -11 40 -25 47 -50 96 -20 125 78 22 74 19 95 -25
163 -53 83 -84 97 -215 96 -117 -2 -145 10 -192 80 -36 52 -48 83 -67 168 -8
36 -45 162 -81 280 -61 194 -103 337 -196 650 -37 124 -57 166 -116 241 -37
47 -54 86 -110 255 l-66 199 -4 135 c-2 74 -9 148 -15 163 -9 24 -7 31 12 51
30 33 23 60 -18 64 -38 4 -41 21 -11 63 30 42 19 63 -30 56 -52 -7 -75 7 -60
36 6 12 23 34 37 50 24 26 25 28 9 44 -15 15 -21 15 -53 4 -26 -10 -39 -10
-47 -2 -11 11 -9 19 17 82 12 27 -35 40 -98 28 -42 -9 -60 -8 -82 2 -63 30
-81 134 -33 185 30 32 85 50 212 69 133 20 170 33 244 83 34 23 94 50 143 65
110 34 157 73 205 170 31 63 44 112 61 233 2 17 18 52 35 78 54 81 61 182 15
210 -11 8 -72 21 -135 31 -90 13 -145 15 -271 10 -108 -5 -168 -4 -191 4 -21
7 -68 45 -119 97 -122 123 -133 127 -275 97z m202 -183 c2 0 3 -19 3 -43 0
-55 -19 -81 -76 -103 -47 -18 -47 -18 -65 5 -26 31 -24 59 7 104 30 45 58 57
99 46 16 -5 31 -9 32 -9z"/>
<path d="M4783 2668 c-33 -36 -83 -108 -83 -120 0 -16 53 -8 80 12 35 25 64
84 56 116 -8 32 -16 30 -53 -8z"/>
<path d="M4365 2559 c-11 -17 56 -75 97 -83 33 -7 103 8 113 24 4 6 -20 22
-51 37 -68 31 -147 42 -159 22z"/>
<path d="M4616 2391 c-11 -12 -15 -27 -11 -44 8 -31 24 -38 62 -28 23 6 29 13
31 43 3 30 -1 36 -20 42 -35 9 -44 7 -62 -13z"/>
</g>
</svg>
